HIERARCHY
ROOT reference
{
  OFFSET 0 0 0
  CHANNELS 6 Xposition Yposition Zposition Zrotation Xrotation Yrotation
  JOINT Hips
  {
    OFFSET 1.17329 83.5799 118.45
    CHANNELS 6 Xposition Yposition Zposition Zrotation Xrotation Yrotation
    JOINT Spine
    {
      OFFSET 0 7.76127 0
      CHANNELS 6 Xposition Yposition Zposition Zrotation Xrotation Yrotation
      JOINT Spine1
      {
        OFFSET 0 24.7858 0
        CHANNELS 6 Xposition Yposition Zposition Zrotation Xrotation Yrotation
        JOINT Neck
        {
          OFFSET 0 24.684 2.244
          CHANNELS 6 Xposition Yposition Zposition Zrotation Xrotation Yrotation
          JOINT Head
          {
            OFFSET 0 13.2509 -1.89299
            CHANNELS 6 Xposition Yposition Zposition Zrotation Xrotation Yrotation
            End Site
            {
              OFFSET 0 23.6624 0
            }
          }
        }
        JOINT LeftShoulder
        {
          OFFSET 3.79413 23.4442 -0.177979
          CHANNELS 6 Xposition Yposition Zposition Zrotation Xrotation Yrotation
          JOINT LeftArm
          {
            OFFSET 9.21107 0 0
            CHANNELS 6 Xposition Yposition Zposition Zrotation Xrotation Yrotation
            JOINT LeftForeArm
            {
              OFFSET 34.3528 0 0
              CHANNELS 6 Xposition Yposition Zposition Zrotation Xrotation Yrotation
              JOINT LeftHand
              {
                OFFSET 25.4606 0 0
                CHANNELS 6 Xposition Yposition Zposition Zrotation Xrotation Yrotation
                End Site
                {
                  OFFSET 14.1974 0 0
                }
              }
            }
          }
        }
        JOINT RightShoulder
        {
          OFFSET -3.76739 23.4442 -0.177979
          CHANNELS 6 Xposition Yposition Zposition Zrotation Xrotation Yrotation
          JOINT RightArm
          {
            OFFSET -9.21107 0 0
            CHANNELS 6 Xposition Yposition Zposition Zrotation Xrotation Yrotation
            JOINT RightForeArm
            {
              OFFSET -34.3528 0 0
              CHANNELS 6 Xposition Yposition Zposition Zrotation Xrotation Yrotation
              JOINT RightHand
              {
                OFFSET -25.4606 0 0
                CHANNELS 6 Xposition Yposition Zposition Zrotation Xrotation Yrotation
                End Site
                {
                  OFFSET -14.1974 0 0
                }
              }
            }
          }
        }
      }
    }
    JOINT LeftUpLeg
    {
      OFFSET 9.46496 0 0
      CHANNELS 6 Xposition Yposition Zposition Zrotation Xrotation Yrotation
      JOINT LeftLeg
      {
        OFFSET 0 -36.0737 0
        CHANNELS 6 Xposition Yposition Zposition Zrotation Xrotation Yrotation
        JOINT LeftFoot
        {
          OFFSET 0 -40.8088 0
          CHANNELS 6 Xposition Yposition Zposition Zrotation Xrotation Yrotation
          JOINT LeftToeBase
          {
            OFFSET 0 -6.15222 14.1974
            CHANNELS 6 Xposition Yposition Zposition Zrotation Xrotation Yrotation
            End Site
            {
              OFFSET 0 0 3.78598
            }
          }
        }
      }
    }
    JOINT RightUpLeg
    {
      OFFSET -9.46496 0 0
      CHANNELS 6 Xposition Yposition Zposition Zrotation Xrotation Yrotation
      JOINT RightLeg
      {
        OFFSET 0 -36.0737 0
        CHANNELS 6 Xposition Yposition Zposition Zrotation Xrotation Yrotation
        JOINT RightFoot
        {
          OFFSET 0 -40.8088 0
          CHANNELS 6 Xposition Yposition Zposition Zrotation Xrotation Yrotation
          JOINT RightToeBase
          {
            OFFSET 0 -6.15222 14.1974
            CHANNELS 6 Xposition Yposition Zposition Zrotation Xrotation Yrotation
            End Site
            {
              OFFSET 0 0 3.78598
            }
          }
        }
      }
    }
  }
}
MOTION
Frames:	4
Frame Time:	0.004
0 0 0 0 0 -0 -20.5298 79.0301 -211.551 -0.579786 3.77147 7.56251 3.55271e-015 7.76127 2.84217e-014 0.293275 -9.41687 0.657612 0 24.7858 0 -0.932764 2.73103 0.655711 0 24.684 2.244 0.941922 17.8515 -1.88165 3.55271e-015 13.2509 -1.89299 -0.000862004 -3.62103 -1.944 3.79413 23.4442 -0.177979 -1.99241 13.3837 -2.30896 9.21107 0 2.84217e-014 -24.6635 25.5597 -3.16374 34.3528 0 -2.84217e-014 9.26832 -19.0922 -11.275 25.4606 -2.84217e-014 0 3.40421 -18.2206 0.078102 -3.76739 23.4442 -0.177979 -0.951156 13.5137 -3.04925 -9.21107 0 2.84217e-014 28.9086 16.5027 1.0141 -34.3528 0 -2.84217e-014 -3.64762 -14.9158 18.5216 -25.4606 1.42109e-014 0 -10.021 -14.2295 -1.29552 9.46496 1.42109e-014 0 -2.15481 1.19643 -1.78443 1.77636e-015 -36.0737 2.84217e-014 0.766702 1.99065 -5.94568 0 -40.8088 0 -0.475585 -3.96499 15.271 0 -6.15222 14.1974 -6.95746e-016 0 -0 -9.46496 1.42109e-014 0 1.23746 8.66153 0.084109 -3.55271e-015 -36.0737 2.84217e-014 0.97266 -10.1851 -0.826972 0 -40.8088 0 0.915188 -0.51729 -25.4467 1.42109e-014 -6.15222 14.1974 -2.98177e-016 0 3.18055e-015 
0 0 0 0 0 -0 -20.5248 79.0297 -211.541 -0.581088 3.77619 7.53856 0 7.76127 0 0.290424 -9.38371 0.653574 0 24.7858 0 -0.945372 2.71955 0.652204 7.10543e-015 24.684 2.244 0.983422 17.8421 -1.891 0 13.2509 -1.89299 -0.054381 -3.62834 -1.96251 3.79413 23.4442 -0.177979 -2.16736 13.5145 -2.27299 9.21107 1.42109e-014 0 -24.7954 25.8163 -3.17937 34.3528 0 -5.68434e-014 9.10387 -19.1482 -11.5546 25.4606 1.42109e-014 -2.84217e-014 3.50204 -18.2698 0.120525 -3.76739 23.4442 -0.177979 -0.799268 13.7647 -3.05431 -9.21107 1.42109e-014 0 29.1249 17.0251 1.156 -34.3528 0 0 -3.66883 -15.222 18.799 -25.4606 1.42109e-014 0 -10.1432 -14.5116 -1.42824 9.46496 0 0 -2.14965 1.18668 -1.77644 1.77636e-015 -36.0737 0 0.769592 2.02385 -5.94951 1.77636e-015 -40.8088 0 -0.506812 -3.99608 15.2874 0 -6.15222 14.1974 5.96354e-016 3.97569e-016 -0 -9.46496 0 0 1.24541 8.6683 0.085964 -3.55271e-015 -36.0737 -2.84217e-014 0.966893 -10.2047 -0.859675 0 -40.8088 2.84217e-014 0.887775 -0.504795 -25.4092 1.42109e-014 -6.15222 14.1974 -9.93923e-017 -3.97569e-016 6.36111e-015 
0 0 0 0 0 -0 -20.5154 79.0278 -211.53 -0.576916 3.77556 7.49682 0 7.76127 -2.84217e-014 0.348835 -9.37535 0.653536 -3.55271e-015 24.7858 0 -1.11062 2.77557 0.652927 -3.55271e-015 24.684 2.244 1.09106 17.8137 -1.87106 -3.55271e-015 13.2509 -1.89299 -0.107644 -3.67328 -1.94973 3.79413 23.4442 -0.177979 -2.25629 13.6072 -2.20954 9.21107 1.42109e-014 0 -25.07 26.3376 -3.2278 34.3528 -1.42109e-014 0 9.30336 -19.3971 -11.6363 25.4606 0 0 3.61721 -18.4893 0.287696 -3.76739 23.4442 -0.177979 -0.5571 13.9729 -3.00971 -9.21107 2.84217e-014 0 29.3106 17.293 1.30607 -34.3528 -1.42109e-014 2.84217e-014 -3.63889 -15.3031 19.0248 -25.4606 -4.26326e-014 0 -10.314 -14.5789 -1.53956 9.46496 1.42109e-014 -2.84217e-014 -2.17007 1.19224 -1.76934 3.55271e-015 -36.0737 -2.84217e-014 0.766033 2.03034 -5.8468 0 -40.8088 0 -0.422859 -3.99684 15.2223 0 -6.15222 14.1974 9.93923e-017 7.95139e-016 -0 -9.46496 1.42109e-014 0 1.22417 8.68511 0.103083 0 -36.0737 -2.84217e-014 0.968768 -10.2234 -0.853962 -3.55271e-015 -40.8088 0 0.854606 -0.50288 -25.3896 1.42109e-014 -6.15222 14.1974 -4.96962e-016 -3.97569e-016 -6.36111e-015 
0 0 0 0 0 -0 -20.5096 79.0258 -211.518 -0.573709 3.79295 7.46525 -3.55271e-015 7.76127 0 0.308296 -9.32084 0.654006 0 24.7858 0 -1.04327 2.69978 0.654231 0 24.684 2.244 1.09322 17.8972 -1.90179 -7.10543e-015 13.2509 -1.89299 -0.218747 -3.81661 -2.00039 3.79413 23.4442 -0.177979 -2.46311 13.7433 -2.20763 9.21107 2.84217e-014 0 -25.4126 27.076 -3.19985 34.3528 0 5.68434e-014 9.64922 -19.7593 -11.7187 25.4606 7.10543e-015 2.84217e-014 3.63895 -18.8071 0.48861 -3.76739 23.4442 -0.177979 -0.464026 14.2846 -3.05341 -9.21107 -2.84217e-014 0 29.53 17.801 1.47348 -34.3528 1.42109e-014 0 -3.62079 -15.552 19.3283 -25.4606 0 -2.84217e-014 -10.6701 -14.7788 -1.96627 9.46496 1.42109e-014 -2.84217e-014 -2.16309 1.17702 -1.76477 3.55271e-015 -36.0737 0 0.769345 2.0505 -5.89915 0 -40.8088 -2.84217e-014 -0.475248 -4.01897 15.2725 7.10543e-015 -6.15222 14.1974 1.2921e-015 0 -0 -9.46496 2.84217e-014 0 1.23008 8.67885 0.107841 3.55271e-015 -36.0737 0 0.964895 -10.2361 -0.879938 0 -40.8088 -2.84217e-014 0.860369 -0.486457 -25.3469 0 -6.15222 14.1974 -5.96354e-016 7.95139e-016 -3.18055e-015 
